<svg width="34" height="35" viewBox="0 0 34 35" fill="none" xmlns="http://www.w3.org/2000/svg">
<path d="M23.6666 26C24.3738 26 25.0521 26.2809 25.5522 26.781C26.0523 27.2811 26.3333 27.9594 26.3333 28.6667C26.3333 29.3739 26.0523 30.0522 25.5522 30.5523C25.0521 31.0524 24.3738 31.3333 23.6666 31.3333C22.9593 31.3333 22.2811 31.0524 21.781 30.5523C21.2809 30.0522 20.9999 29.3739 20.9999 28.6667C20.9999 27.1867 22.1866 26 23.6666 26ZM2.33325 4.66666H6.69325L7.94659 7.33333H27.6666C28.0202 7.33333 28.3593 7.47381 28.6094 7.72386C28.8594 7.9739 28.9999 8.31304 28.9999 8.66666C28.9999 8.89333 28.9332 9.12 28.8399 9.33333L24.0666 17.96C23.6132 18.7733 22.7333 19.3333 21.7333 19.3333H11.7999L10.5999 21.5067L10.5599 21.6667C10.5599 21.7551 10.595 21.8399 10.6575 21.9024C10.7201 21.9649 10.8048 22 10.8933 22H26.3333V24.6667H10.3333C9.62601 24.6667 8.94773 24.3857 8.44763 23.8856C7.94754 23.3855 7.66658 22.7072 7.66658 22C7.66658 21.5333 7.78658 21.0933 7.98658 20.72L9.79992 17.4533L4.99992 7.33333H2.33325V4.66666ZM10.3333 26C11.0405 26 11.7188 26.2809 12.2189 26.781C12.719 27.2811 12.9999 27.9594 12.9999 28.6667C12.9999 29.3739 12.719 30.0522 12.2189 30.5523C11.7188 31.0524 11.0405 31.3333 10.3333 31.3333C9.62601 31.3333 8.94773 31.0524 8.44763 30.5523C7.94754 30.0522 7.66658 29.3739 7.66658 28.6667C7.66658 27.1867 8.85325 26 10.3333 26ZM22.3333 16.6667L26.0399 10H9.18658L12.3333 16.6667H22.3333Z" fill="#191919"/>
</svg>
