<svg width="180" height="33" viewBox="0 0 180 33" fill="none" xmlns="http://www.w3.org/2000/svg">
<g clip-path="url(#clip0_5_31)">
<path d="M36.4509 6.75488V26.227H40.2278V18.2077H47.5596V26.227H51.3365V6.75488H47.5596V14.9236H40.2278V6.75488H36.4509Z" fill="#174A43"/>
<path fill-rule="evenodd" clip-rule="evenodd" d="M60.9636 17.4139L57.187 17.9886C54.5482 18.3901 53.1906 19.8116 53.1906 22.0011C53.1906 24.0813 54.5219 26.2408 57.904 26.2408C58.4567 26.2408 59.0119 26.243 59.5756 26.2454C61.1263 26.2516 62.7407 26.2582 64.543 26.219V16.9213C64.543 13.8556 62.4448 12.3781 59.4331 12.3781C58.0262 12.3781 56.2981 12.597 54.3725 13.0621V15.936C56.1499 15.4435 57.409 15.2518 58.7173 15.2518C60.2231 15.2518 60.9636 15.8264 60.9636 17.0035V17.4139ZM58.5693 20.151L60.9637 19.8094V23.6711C60.1067 23.682 59.7304 23.6819 59.1728 23.6817H58.9148C57.4583 23.6817 56.8166 22.8333 56.8166 21.9574C56.8166 21.0269 57.2807 20.335 58.5692 20.151H58.5693Z" fill="#174A43"/>
<path d="M82.07 17.8246C82.07 16.073 81.453 15.2518 80.1694 15.2518C79.4289 15.2518 78.6636 15.4982 77.8735 15.7719C77.9476 16.2099 77.9972 16.7299 77.9972 17.2772V26.227H74.4177V17.6878C74.4177 16.0455 73.8251 15.2518 72.6156 15.2518C72.1038 15.2518 71.592 15.3172 71.0639 15.3847C70.8278 15.4148 70.5884 15.4454 70.3443 15.4708V26.2269H66.765V13.0621C68.962 12.7064 71.0602 12.3781 73.3314 12.3781C74.8371 12.3781 75.9728 12.7338 76.738 13.4728C78.4168 12.8706 79.9225 12.3781 81.5765 12.3781C84.3414 12.3781 85.6497 13.9653 85.6497 17.2771V26.2269H82.07V17.8246Z" fill="#174A43"/>
<path d="M87.8713 6.75488V26.2269H91.4506V19.5762L95.5486 26.2269H99.6461L94.8326 18.8373L99.6461 12.5421H95.5486L91.4506 18.2077V6.75488H87.8713Z" fill="#174A43"/>
<path fill-rule="evenodd" clip-rule="evenodd" d="M105.176 26.3912C101.523 26.3912 99.054 24.3659 99.054 20.1236V18.6456C99.054 14.4034 101.522 12.3782 105.176 12.3782C108.829 12.3782 111.298 14.3214 111.298 18.6456V20.1236C111.298 24.3659 108.829 26.3912 105.176 26.3912ZM107.719 18.4539C107.719 16.2919 106.879 15.2517 105.176 15.2517C103.448 15.2517 102.633 16.2917 102.633 18.4539V20.2878C102.633 22.4773 103.448 23.5172 105.176 23.5172C106.879 23.5172 107.719 22.4773 107.719 20.2878V18.4539Z" fill="#174A43"/>
<path d="M120.753 15.936V12.9253C120.135 12.5421 119.296 12.4053 118.284 12.4053C116.778 12.4053 114.951 12.7063 113.125 13.0621V26.2268H116.704V15.7171C117.395 15.5529 118.012 15.4707 118.605 15.4707C119.419 15.4707 120.135 15.6349 120.753 15.936Z" fill="#174A43"/>
<path d="M168.182 7.02551V26.391H171.733V19.7766L175.799 26.391H179.865L175.089 19.0419L179.865 12.7811H175.799L171.733 18.4156V7.02551H168.182Z" fill="#174A43"/>
<path fill-rule="evenodd" clip-rule="evenodd" d="M132.596 26.3912H124.973V7.19873H132.177C135.878 7.19873 138.024 8.789 138.024 12.1887C138.024 14.1629 137.061 15.5064 135.779 16.3016C137.827 17.0143 139.01 18.6046 139.01 21.1545C139.01 24.6913 136.643 26.3912 132.596 26.3912ZM128.748 17.7547V23.2108H132.399C134.2 23.2108 135.236 22.2786 135.236 20.4687C135.236 18.6593 134.225 17.7547 132.424 17.7547H128.748ZM128.748 10.3519V14.9856H131.881C133.386 14.9856 134.249 14.2452 134.249 12.6823C134.249 11.1195 133.435 10.3519 131.881 10.3519H128.748Z" fill="#174A43"/>
<path fill-rule="evenodd" clip-rule="evenodd" d="M144.825 18.1749L148.572 17.6034V17.6037V17.1954C148.572 16.0249 147.838 15.4533 146.344 15.4533C145.046 15.4533 143.797 15.6439 142.033 16.1339V13.2756C143.943 12.813 145.658 12.5952 147.054 12.5952C150.042 12.5952 152.124 14.0647 152.124 17.1135V26.3602C150.336 26.3992 148.734 26.3928 147.196 26.3865H147.195H147.192H147.191H147.19H147.188C146.632 26.3842 146.083 26.382 145.537 26.382C142.181 26.382 140.86 24.2343 140.86 22.1655C140.86 19.9879 142.207 18.5742 144.825 18.1749ZM148.572 19.9855L146.197 20.3255C144.918 20.5081 144.458 21.1964 144.458 22.1218C144.458 22.9928 145.094 23.8366 146.539 23.8366C146.63 23.8366 146.716 23.8366 146.797 23.8366C147.349 23.8369 147.723 23.837 148.572 23.8263V19.9855Z" fill="#174A43"/>
<path d="M160.154 15.3966C161.485 15.3966 162.152 16.137 162.152 17.7V26.3912H165.729V17.4256C165.729 14.1081 164.151 12.5178 160.893 12.5178C158.525 12.5178 156.329 12.8467 154.134 13.2031V26.3911H157.711V15.6433C157.854 15.624 157.998 15.6039 158.14 15.5837L158.141 15.5835C158.806 15.4894 159.463 15.3966 160.154 15.3966Z" fill="#174A43"/>
<path d="M9.80305 31.531C17.5319 34.5525 26.0779 30.2722 28.891 21.9708C30.674 16.7095 29.7261 11.0955 26.825 6.92022L25.5932 10.5554C27.0851 13.6542 27.4123 17.3877 26.2138 20.9243C23.9389 27.6376 17.0278 31.099 10.7775 28.6555C10.408 28.5111 10.0491 28.3492 9.7013 28.1711L13.1332 18.0439H15.6138L13.4672 24.3783L18.4238 24.3918L25.0614 4.80412C23.6401 3.37769 21.9335 2.22871 19.9902 1.46901C12.2612 -1.55245 3.71527 2.72778 0.902183 11.0292C-0.880741 16.2905 0.0671275 21.9045 2.96819 26.0798L4.20004 22.4446C2.70819 19.3458 2.38094 15.6123 3.57939 12.0758C5.85432 5.36246 12.7654 1.90106 19.0158 4.34451C19.3851 4.48895 19.7441 4.65078 20.0919 4.82884L16.6507 14.9838H14.1702L16.326 8.6217L11.3694 8.60826L4.7317 28.1959C6.1531 29.6223 7.85973 30.7713 9.80305 31.531Z" fill="#17A755"/>
</g>
<defs>
<clipPath id="clip0_5_31">
<rect width="180" height="32" fill="white" transform="translate(0 0.5)"/>
</clipPath>
</defs>
</svg>
