<svg width="41" height="40" viewBox="0 0 41 40" fill="none" xmlns="http://www.w3.org/2000/svg">
<g clip-path="url(#clip0_3_1421)">
<path d="M34.3515 15.2101V13.6723C34.3515 9.9916 33.049 6.57143 30.6876 4.03361C28.2675 1.42857 24.9397 0 21.3095 0H20.0406C16.4103 0 13.0826 1.42857 10.6624 4.03361C8.30109 6.57143 6.99857 9.9916 6.99857 13.6723V15.2101C4.13302 15.4034 1.85571 17.7899 1.85571 20.7059V23.1092C1.85571 26.1429 4.3263 28.6134 7.35992 28.6134H10.4608C11.0154 28.6134 11.4692 28.1597 11.4692 27.605V16.2017C11.4692 15.6471 11.0154 15.1933 10.4608 15.1933H9.01538V13.6723C9.01538 7.02521 13.7549 2.01681 20.0322 2.01681H21.3011C27.5868 2.01681 32.3179 7.02521 32.3179 13.6723V15.1933H30.8725C30.3179 15.1933 29.8641 15.6471 29.8641 16.2017V27.5966C29.8641 28.1513 30.3179 28.605 30.8725 28.605H32.2843C31.8725 33.8655 28.2507 35.084 26.57 35.3613C26.1078 33.9412 24.7717 32.916 23.2003 32.916H20.6792C18.7297 32.916 17.1414 34.5042 17.1414 36.4538C17.1414 38.4034 18.7297 40 20.6792 40H23.2087C24.8389 40 26.2087 38.8908 26.6204 37.395C27.444 37.2773 28.7465 36.9832 30.0406 36.2269C31.8641 35.1597 34.0238 32.9832 34.3095 28.5966C37.1919 28.4202 39.4776 26.0252 39.4776 23.1008V20.6975C39.486 17.7899 37.2171 15.395 34.3515 15.2101ZM9.46916 26.5882H7.37672C5.45235 26.5882 3.88933 25.0252 3.88933 23.1008V20.6975C3.88933 18.7731 5.45235 17.2101 7.37672 17.2101H9.46916V26.5882ZM23.2087 37.9832H20.6792C19.8389 37.9832 19.1582 37.3025 19.1582 36.4622C19.1582 35.6218 19.8389 34.9412 20.6792 34.9412H23.2087C24.049 34.9412 24.7297 35.6218 24.7297 36.4622C24.7297 37.3025 24.049 37.9832 23.2087 37.9832ZM37.4692 23.1008C37.4692 25.0252 35.9061 26.5882 33.9818 26.5882H31.8893V17.2101H33.9818C35.9061 17.2101 37.4692 18.7731 37.4692 20.6975V23.1008Z" fill="#FF0000"/>
</g>
<defs>
<clipPath id="clip0_3_1421">
<rect width="40" height="40" fill="white" transform="translate(0.666626)"/>
</clipPath>
</defs>
</svg>
