<svg width="20" height="21" viewBox="0 0 20 21" fill="none" xmlns="http://www.w3.org/2000/svg">
<path d="M10.9333 14.764L7.43418 12.8556C6.97734 13.344 6.38416 13.6837 5.73174 13.8305C5.07931 13.9774 4.3978 13.9246 3.77578 13.679C3.15375 13.4334 2.61998 13.0064 2.24382 12.4535C1.86765 11.9006 1.6665 11.2473 1.6665 10.5786C1.6665 9.9098 1.86765 9.25652 2.24382 8.7036C2.61998 8.15067 3.15375 7.72368 3.77578 7.4781C4.3978 7.23253 5.07931 7.17973 5.73174 7.32656C6.38416 7.4734 6.97734 7.81308 7.43418 8.30147L10.9342 6.39313C10.7358 5.60644 10.8311 4.77438 11.2023 4.05294C11.5735 3.3315 12.195 2.77021 12.9505 2.47427C13.7059 2.17834 14.5433 2.16809 15.3058 2.44545C16.0682 2.7228 16.7034 3.26871 17.0921 3.98085C17.4808 4.69299 17.5965 5.52247 17.4174 6.31378C17.2383 7.1051 16.7767 7.80393 16.1192 8.27928C15.4617 8.75462 14.6534 8.97385 13.8459 8.89586C13.0383 8.81787 12.2869 8.44802 11.7325 7.85563L8.23251 9.76397C8.36712 10.2984 8.36712 10.8579 8.23251 11.3923L11.7325 13.3006C12.2872 12.7085 13.0387 12.3391 13.8463 12.2615C14.6539 12.1839 15.4621 12.4035 16.1194 12.8791C16.7766 13.3548 17.2379 14.0538 17.4166 14.8452C17.5953 15.6366 17.4793 16.466 17.0903 17.1779C16.7012 17.8899 16.0659 18.4355 15.3033 18.7125C14.5408 18.9895 13.7034 18.9789 12.9481 18.6827C12.1928 18.3865 11.5714 17.825 11.2005 17.1034C10.8296 16.3818 10.7346 15.5497 10.9333 14.7631M5.00001 12.2448C5.44204 12.2448 5.86596 12.0692 6.17852 11.7566C6.49108 11.4441 6.66668 11.0202 6.66668 10.5781C6.66668 10.1361 6.49108 9.71218 6.17852 9.39962C5.86596 9.08706 5.44204 8.91147 5.00001 8.91147C4.55798 8.91147 4.13406 9.08706 3.8215 9.39962C3.50894 9.71218 3.33334 10.1361 3.33334 10.5781C3.33334 11.0202 3.50894 11.4441 3.8215 11.7566C4.13406 12.0692 4.55798 12.2448 5.00001 12.2448ZM14.1667 7.2448C14.6087 7.2448 15.0326 7.06921 15.3452 6.75665C15.6577 6.44408 15.8333 6.02016 15.8333 5.57813C15.8333 5.13611 15.6577 4.71218 15.3452 4.39962C15.0326 4.08706 14.6087 3.91147 14.1667 3.91147C13.7246 3.91147 13.3007 4.08706 12.9882 4.39962C12.6756 4.71218 12.5 5.13611 12.5 5.57813C12.5 6.02016 12.6756 6.44408 12.9882 6.75665C13.3007 7.06921 13.7246 7.2448 14.1667 7.2448ZM14.1667 17.2448C14.6087 17.2448 15.0326 17.0692 15.3452 16.7566C15.6577 16.4441 15.8333 16.0202 15.8333 15.5781C15.8333 15.1361 15.6577 14.7122 15.3452 14.3996C15.0326 14.0871 14.6087 13.9115 14.1667 13.9115C13.7246 13.9115 13.3007 14.0871 12.9882 14.3996C12.6756 14.7122 12.5 15.1361 12.5 15.5781C12.5 16.0202 12.6756 16.4441 12.9882 16.7566C13.3007 17.0692 13.7246 17.2448 14.1667 17.2448Z" fill="white"/>
</svg>
