<svg width="41" height="40" viewBox="0 0 41 40" fill="none" xmlns="http://www.w3.org/2000/svg">
<g clip-path="url(#clip0_3_1452)">
<path d="M36.3133 34.6678L34.0115 8.72697C33.9701 8.21362 33.5395 7.82447 33.0179 7.82447H28.1659C28.1576 3.51066 24.647 0 20.3332 0C16.0194 0 12.5087 3.51066 12.5004 7.82447H7.64841C7.13506 7.82447 6.70451 8.21362 6.65483 8.72697L4.35303 34.6678C4.35303 34.7009 4.35303 34.7257 4.35303 34.7589C4.35303 37.6485 7.01086 40 10.2731 40H30.3932C33.6555 40 36.3133 37.6485 36.3133 34.7589C36.3133 34.7257 36.3133 34.7009 36.3133 34.6678ZM20.3332 1.98717C23.554 1.98717 26.1705 4.6036 26.1787 7.82447H14.4876C14.4959 4.6036 17.1123 1.98717 20.3332 1.98717ZM30.3932 38.0046H10.2731C8.12036 38.0046 6.36503 36.5721 6.34019 34.792L8.5592 9.81163H12.5004V13.2975C12.5004 13.8439 12.9475 14.291 13.494 14.291C14.0405 14.291 14.4876 13.8439 14.4876 13.2975V9.81163H26.1787V13.2975C26.1787 13.8439 26.6259 14.291 27.1723 14.291C27.7188 14.291 28.1659 13.8439 28.1659 13.2975V9.81163H32.1071L34.3261 34.8002C34.3013 36.5721 32.5459 38.0046 30.3932 38.0046Z" fill="#FF0000"/>
<path d="M24.4647 20.6831L18.6026 26.5453L16.2097 24.1524C15.8205 23.7632 15.1913 23.7632 14.8021 24.1524C14.413 24.5415 14.413 25.1708 14.8021 25.56L17.8988 28.6566C18.0892 28.8471 18.3459 28.9464 18.6026 28.9464C18.8592 28.9464 19.1076 28.8471 19.3064 28.6566L25.8723 22.0907C26.2614 21.7015 26.2614 21.0723 25.8723 20.6831C25.4831 20.3022 24.8539 20.3022 24.4647 20.6831Z" fill="#FF0000"/>
</g>
<defs>
<clipPath id="clip0_3_1452">
<rect width="40" height="40" fill="white" transform="translate(0.333252)"/>
</clipPath>
</defs>
</svg>
