<svg width="20" height="21" viewBox="0 0 20 21" fill="none" xmlns="http://www.w3.org/2000/svg">
<path d="M8.52009 1.19166C8.89182 0.820093 9.38963 0.601825 9.91477 0.580152C10.4399 0.55848 10.954 0.734986 11.3551 1.07466L11.4811 1.19166L19.3861 9.09666C20.1631 9.87366 20.2021 11.1097 19.5031 11.9327L19.3861 12.0587L11.4811 19.9637C11.1094 20.3357 10.6114 20.5543 10.0859 20.576C9.5605 20.5977 9.04614 20.4208 8.64509 20.0807L8.51909 19.9637L0.612093 12.0577C0.241024 11.6856 0.023267 11.1876 0.0019679 10.6626C-0.0193312 10.1375 0.157382 9.62359 0.497093 9.22266L0.614093 9.09666L8.51909 1.19166H8.52009ZM14.4891 10.7267L14.4991 10.6107L14.4961 10.4907L14.4801 10.3767L14.4501 10.2667L14.4061 10.1547L14.3541 10.0567L14.2781 9.95166L14.2081 9.87066L10.7081 6.37066L10.6131 6.28766C10.4377 6.15159 10.2221 6.07774 10.0001 6.07774C9.77812 6.07774 9.56247 6.15159 9.38709 6.28766L9.29309 6.37066L9.21009 6.46466C9.07403 6.64003 9.00018 6.85569 9.00018 7.07766C9.00018 7.29963 9.07403 7.51528 9.21009 7.69066L9.29309 7.78466L11.0851 9.57766H6.00009L5.88309 9.58466C5.64004 9.61357 5.41604 9.73061 5.25351 9.91362C5.09098 10.0966 5.00121 10.3329 5.00121 10.5777C5.00121 10.8224 5.09098 11.0587 5.25351 11.2417C5.41604 11.4247 5.64004 11.5417 5.88309 11.5707L6.00009 11.5777H11.0851L9.29309 13.3707L9.21009 13.4647C9.06095 13.6571 8.98712 13.8973 9.00245 14.1403C9.01777 14.3832 9.12121 14.6123 9.29335 14.7844C9.4655 14.9565 9.69453 15.06 9.9375 15.0753C10.1805 15.0906 10.4207 15.0168 10.6131 14.8677L10.7071 14.7847L14.2071 11.2847L14.3041 11.1727L14.3541 11.0987L14.3911 11.0317L14.4411 10.9197L14.4641 10.8437L14.4891 10.7267Z" fill="white"/>
</svg>
